<?xml version="1.0" standalone="no"?>
<!DOCTYPE svg PUBLIC "-//W3C//DTD SVG 20010904//EN"
 "http://www.w3.org/TR/2001/REC-SVG-20010904/DTD/svg10.dtd">
<svg version="1.0" xmlns="http://www.w3.org/2000/svg"
 width="300.000000pt" height="300.000000pt" viewBox="0 0 300.000000 300.000000"
 preserveAspectRatio="xMidYMid meet">
<metadata>
Created by potrace 1.10, written by Peter Selinger 2001-2011
</metadata>
<g transform="translate(0.000000,300.000000) scale(0.100000,-0.100000)"
fill="#000000" stroke="none">
<path d="M1325 2689 c-27 -5 -58 -14 -67 -19 -10 -6 -24 -10 -32 -10 -24 0
-159 -72 -216 -115 -47 -36 -112 -101 -157 -158 -25 -31 -81 -155 -102 -224
-27 -90 -34 -223 -16 -276 13 -37 12 -41 -16 -85 -19 -30 -29 -59 -29 -84 0
-77 54 -135 114 -124 30 6 34 3 86 -70 30 -42 76 -96 103 -119 47 -41 47 -42
33 -71 -17 -34 -8 -94 19 -124 16 -17 15 -20 -5 -48 -24 -32 -20 -70 10 -97
17 -16 18 -19 3 -50 -14 -29 -14 -34 2 -58 9 -15 32 -32 51 -39 32 -11 34 -14
28 -45 -7 -38 11 -64 58 -89 23 -12 26 -18 21 -48 -5 -30 -1 -40 25 -66 17
-16 38 -30 46 -30 11 0 16 -9 16 -32 0 -63 84 -133 158 -130 98 4 182 62 182
126 0 28 6 38 35 54 38 23 53 59 36 90 -15 29 -15 29 24 36 56 11 76 57 51
116 -5 11 0 16 16 17 34 3 65 22 77 50 9 20 8 30 -6 53 -16 28 -16 29 15 55
37 31 40 57 12 85 -24 24 -25 33 -5 50 19 16 36 78 29 107 -10 38 -24 26 -24
-21 0 -40 -17 -73 -38 -77 -35 -6 -112 -6 -110 0 6 14 140 131 150 131 6 0 8
7 4 15 -3 9 0 15 9 15 23 0 143 148 190 235 54 99 73 157 86 256 14 99 2 176
-49 330 -33 100 -36 119 -25 135 38 52 -10 126 -88 137 -29 4 -53 16 -78 40
-83 79 -215 148 -327 172 -75 16 -220 18 -299 4z m255 -33 c108 -20 180 -50
281 -117 48 -33 91 -64 94 -68 3 -5 -12 -18 -33 -29 l-37 -19 -38 32 c-91 79
-250 135 -382 135 -92 0 -207 -30 -298 -77 -104 -54 -223 -174 -270 -273 -40
-85 -67 -194 -67 -272 0 -49 -3 -55 -35 -81 l-35 -28 0 99 c0 309 184 565 481
669 121 42 220 50 339 29z m-79 -146 c10 -6 25 -23 34 -39 17 -34 66 -46 107
-25 37 19 45 18 73 -11 53 -52 19 -122 -54 -112 -37 5 -42 1 -119 -69 -64 -59
-87 -74 -111 -74 -22 0 -31 -5 -31 -16 0 -9 -15 -31 -34 -50 -35 -35 -70 -43
-106 -24 -16 8 -52 -12 -212 -119 -236 -157 -288 -203 -288 -252 0 -25 8 -43
25 -59 14 -13 25 -29 25 -36 0 -20 -38 -4 -65 28 -27 32 -32 72 -13 113 12 27
111 110 203 171 l55 37 0 59 c0 52 -3 63 -25 80 -30 24 -32 56 -4 92 25 31 70
35 96 7 13 -14 34 -20 77 -22 57 -3 60 -2 67 23 9 33 -20 63 -52 55 -80 -21
-116 88 -41 123 36 16 76 -14 80 -61 4 -45 36 -71 69 -56 19 8 23 18 23 54 0
30 -6 49 -20 63 -11 11 -20 29 -20 40 0 20 32 60 49 60 5 0 19 -8 31 -18 27
-22 30 -70 6 -87 -22 -17 -22 -100 0 -109 9 -4 18 -5 19 -4 1 2 12 20 24 41
12 20 32 43 43 51 19 14 19 16 4 37 -23 34 -20 57 13 90 32 32 42 34 72 19z
m159 -15 l34 -12 -52 -7 c-40 -5 -57 -3 -77 10 -14 9 -25 20 -25 25 0 11 69 1
120 -16z m-271 -4 c-18 -15 -28 -17 -43 -9 -15 8 -16 12 -5 19 8 5 27 9 43 9
l28 0 -23 -19z m-178 -15 c-12 -14 -71 -39 -71 -30 0 6 63 44 74 44 5 0 3 -6
-3 -14z m541 -16 c80 -38 130 -80 96 -80 -6 0 -20 -7 -30 -16 -14 -14 -20 -14
-33 -4 -8 7 -15 23 -15 35 0 14 -14 36 -35 54 -42 36 -39 38 17 11z m-537 -49
l0 -28 -31 16 c-27 14 -29 17 -15 28 28 22 46 15 46 -16z m864 12 c26 -22 40
-83 19 -83 -7 0 -19 14 -25 30 -23 61 -57 45 -425 -199 l-297 -196 -1 -334 c0
-328 0 -334 -19 -317 -18 16 -19 36 -20 340 l-1 323 83 55 c621 416 634 423
686 381z m11 -176 c38 -86 53 -164 52 -287 -1 -160 -50 -297 -150 -417 -64
-76 -445 -424 -510 -464 -17 -10 -38 5 -183 127 -368 310 -405 347 -464 465
l-24 46 29 28 30 28 16 -39 c37 -88 130 -197 269 -314 258 -217 310 -260 315
-260 12 0 361 313 426 383 131 140 180 272 171 457 -6 117 -31 213 -73 273
-14 21 -24 40 -22 41 1 2 16 10 33 19 35 18 40 13 85 -86z m-1030 24 c22 -32
22 -33 2 -22 -12 6 -34 8 -48 5 -21 -6 -25 -4 -19 7 10 18 38 50 40 47 1 -2
12 -18 25 -37z m888 16 c2 -11 -3 -17 -15 -17 -11 -1 -4 -8 20 -21 20 -11 37
-26 37 -34 0 -11 -9 -8 -36 10 -20 14 -40 25 -44 25 -18 0 -19 33 -3 46 22 16
37 13 41 -9z m-280 -9 c7 -10 -4 -21 -44 -45 -30 -17 -54 -28 -54 -25 0 8 72
79 81 81 4 0 11 -5 17 -11z m-518 -58 c11 -8 8 -9 -15 -4 -39 9 -47 13 -40 25
6 9 21 3 55 -21z m770 -5 c98 -51 57 -201 -52 -194 -37 3 -41 0 -102 -72 -54
-65 -61 -78 -53 -97 8 -18 18 -22 58 -22 40 0 54 5 79 30 53 52 120 32 120
-37 0 -37 -29 -73 -59 -73 -11 0 -33 11 -49 25 -39 33 -135 37 -152 6 -13 -26
-13 -31 3 -31 7 0 29 -16 47 -35 27 -28 40 -35 58 -30 34 8 72 -19 72 -52 0
-33 -26 -63 -56 -63 -31 0 -66 39 -60 66 4 16 -6 31 -43 62 -46 39 -51 40 -79
30 -26 -10 -38 -9 -67 5 -19 9 -40 28 -45 42 -7 19 -17 25 -39 25 -28 0 -29
-1 -24 -41 5 -32 16 -50 52 -84 41 -39 48 -42 62 -29 8 8 30 14 47 14 67 0 96
-77 47 -125 -26 -27 -46 -31 -75 -15 -14 7 -27 5 -49 -8 -24 -13 -31 -24 -31
-49 0 -22 -8 -38 -25 -51 -23 -19 -25 -26 -25 -110 0 -86 -1 -90 -21 -85 -19
5 -20 12 -17 94 3 76 1 90 -13 94 -9 3 -22 19 -29 34 -9 24 -9 35 4 60 9 17
21 31 26 31 6 0 10 87 10 228 l0 228 45 22 c25 12 54 22 65 22 13 0 20 7 20
19 0 24 36 51 67 51 13 0 32 -9 42 -19 19 -19 20 -19 60 1 34 17 41 25 41 50
0 39 15 64 48 82 35 19 56 20 92 1z m-196 -60 c-15 -23 -44 -35 -44 -17 0 5
43 36 58 41 1 1 -5 -10 -14 -24z m26 -26 c-12 -22 -37 -35 -48 -25 -7 7 36 45
51 46 4 0 3 -9 -3 -21z m-804 -44 c19 -47 18 -72 -7 -106 -28 -40 -42 -27 -34
30 10 78 17 111 22 111 2 0 11 -16 19 -35z m1085 -99 c0 -88 -9 -146 -22 -146
-5 0 -9 4 -9 9 0 5 -12 23 -26 40 -33 39 -81 41 -139 6 -73 -45 -86 -27 -29
41 22 27 44 44 57 44 38 1 103 36 127 70 31 44 42 28 41 -64z m-737 13 c-8 -9
-15 -35 -16 -58 0 -22 -4 -38 -9 -35 -5 3 -9 11 -9 19 0 7 -14 25 -31 38 -30
23 -31 25 -12 31 12 4 26 20 33 37 l13 30 23 -22 c22 -21 23 -24 8 -40z m-54
33 c0 -11 -37 -32 -44 -25 -8 9 14 33 30 33 8 0 14 -3 14 -8z m-24 -93 c50
-47 35 -149 -26 -172 l-30 -11 0 -150 c0 -148 0 -149 -20 -131 -18 16 -20 31
-20 149 l-1 131 -32 20 c-18 11 -33 30 -35 42 -3 19 -11 22 -55 25 -65 4 -68
22 -5 26 41 3 48 6 57 32 23 66 116 87 167 39z m-269 -128 c7 -11 27 -23 45
-27 l33 -7 -27 -9 c-15 -5 -30 -19 -34 -30 -5 -16 -8 -18 -15 -7 -5 8 -9 25
-10 39 -1 17 -3 19 -6 8 -6 -22 -12 -22 -35 -1 -30 27 -21 50 22 52 8 1 21 -8
27 -18z m333 -46 c0 -17 -22 -29 -41 -23 -8 3 -6 9 5 21 22 21 36 22 36 2z
m691 -54 c-17 -34 -34 -61 -38 -61 -4 0 -21 16 -39 35 -22 24 -41 35 -60 35
-27 1 -64 20 -64 34 0 13 54 5 71 -10 10 -9 33 -16 53 -16 35 0 96 29 96 46 0
5 3 7 6 4 3 -3 -9 -33 -25 -67z m-912 25 c17 -20 10 -67 -11 -79 -27 -18 -68
7 -68 41 0 15 5 33 12 40 16 16 53 15 67 -2z m537 -64 c-30 -6 -66 19 -66 46
0 24 0 24 42 -10 34 -26 38 -34 24 -36z m-336 33 c15 -18 5 -35 -20 -35 -10 0
-22 5 -25 10 -7 11 12 40 25 40 4 0 13 -7 20 -15z m0 -190 c0 -133 0 -135 -20
-123 -18 12 -20 24 -20 135 0 116 1 123 20 123 19 0 20 -7 20 -135z m-168 53
c-2 -15 -7 -28 -10 -28 -11 0 -72 64 -72 76 0 8 12 7 43 -4 39 -14 43 -18 39
-44z m708 -23 c11 -4 20 -12 20 -19 0 -10 -83 -90 -163 -156 -17 -14 -49 -42
-71 -63 -71 -66 -76 -66 -76 -5 0 40 6 62 24 89 13 19 31 52 40 72 15 37 33
46 52 27 25 -25 114 49 114 95 0 14 4 13 20 -8 11 -14 29 -29 40 -32z m-394
-272 c-4 -4 -14 1 -24 10 -14 14 -14 21 -4 37 6 11 13 28 13 37 1 10 6 -4 11
-30 6 -26 7 -51 4 -54z m-277 15 c36 -35 67 -65 69 -68 2 -4 -78 -5 -107 -1
-25 3 -41 35 -41 82 0 27 3 49 7 49 3 0 36 -28 72 -62z m181 -160 l52 -43
-138 -3 c-125 -2 -140 -1 -157 17 -43 43 0 69 114 70 75 1 77 0 129 -41z m567
20 c17 -13 17 -44 1 -55 -12 -8 -288 -22 -288 -15 0 2 21 22 46 45 l46 42 91
-3 c51 -2 97 -8 104 -14z m-398 -148 c41 -30 42 -30 84 -16 l42 15 -52 -2
c-52 -1 -73 6 -59 21 4 4 82 9 172 10 171 4 194 -1 194 -38 0 -40 -15 -42
-391 -41 -371 1 -389 3 -389 40 0 37 20 41 190 41 l167 0 42 -30z m290 -124
c15 -17 1 -50 -25 -60 -8 -3 -134 -6 -278 -6 -220 0 -265 2 -284 16 -12 8 -22
21 -22 28 0 34 21 36 311 36 237 0 289 -2 298 -14z m-91 -128 c19 -19 14 -46
-10 -62 -19 -12 -59 -15 -204 -13 -163 2 -184 4 -203 21 -25 23 -26 30 -5 50
13 14 47 16 213 16 140 0 200 -3 209 -12z m-58 -144 c0 -25 -53 -71 -97 -84
-72 -22 -157 10 -188 70 l-16 30 151 0 c130 0 150 -2 150 -16z"/>
<path d="M1452 2468 c-29 -29 3 -82 36 -61 23 14 26 38 7 57 -20 19 -27 20
-43 4z"/>
<path d="M1650 2405 c-26 -31 18 -71 47 -43 12 12 13 20 4 37 -14 25 -34 27
-51 6z"/>
<path d="M1519 2390 c-9 -9 -21 -19 -27 -21 -6 -3 -7 -25 -2 -64 4 -33 8 -55
9 -48 0 7 26 31 56 54 61 46 73 82 33 93 -35 9 -52 6 -69 -14z"/>
<path d="M1110 2345 c-15 -18 -6 -45 13 -45 8 0 20 7 27 15 10 12 10 18 0 30
-16 19 -24 19 -40 0z"/>
<path d="M1407 2310 c-33 -44 -36 -52 -25 -75 8 -18 19 -25 40 -25 l28 0 0 75
c0 41 -1 75 -3 75 -1 0 -19 -22 -40 -50z"/>
<path d="M1254 2224 c-20 -19 -24 -31 -19 -52 10 -40 24 -52 59 -52 37 0 49 7
65 37 20 40 -16 93 -64 93 -9 0 -27 -11 -41 -26z m73 -30 c3 -8 -2 -23 -11
-32 -15 -15 -17 -15 -32 0 -21 21 -11 48 16 48 11 0 23 -7 27 -16z"/>
<path d="M992 2188 c-28 -28 3 -83 33 -58 20 16 19 56 -1 64 -20 8 -18 8 -32
-6z"/>
<path d="M1056 2117 c-22 -24 -30 -45 -33 -81 -4 -48 -4 -49 16 -35 11 8 54
37 95 64 97 65 100 85 14 85 -58 -1 -65 -3 -92 -33z"/>
<path d="M1842 2173 c-36 -31 -37 -60 -3 -93 31 -31 49 -32 84 -2 23 20 22 67
-3 92 -25 25 -51 25 -78 3z m58 -52 c0 -24 -25 -34 -40 -16 -15 18 -5 35 21
35 12 0 19 -7 19 -19z"/>
<path d="M1746 2060 c-17 -11 -36 -32 -44 -47 -28 -56 -75 -70 -112 -33 -24
24 -29 24 -77 5 l-38 -15 -1 -70 -1 -70 29 0 c21 0 31 6 38 24 18 48 97 75
129 44 10 -11 14 -9 23 6 6 10 34 46 63 80 45 53 51 65 40 79 -15 20 -12 20
-49 -3z m-171 -135 c-11 -8 -28 -22 -37 -31 -17 -17 -18 -16 -18 5 0 21 27 39
60 40 11 0 9 -4 -5 -14z"/>
<path d="M1612 2058 c-30 -30 11 -85 44 -57 25 21 11 69 -21 69 -6 0 -16 -5
-23 -12z"/>
<path d="M1600 1867 c-32 -16 -41 -74 -14 -94 28 -20 71 -16 88 9 22 31 20 45
-9 73 -28 29 -31 29 -65 12z m46 -38 c10 -17 -23 -46 -37 -32 -7 7 -9 19 -6
27 7 18 33 21 43 5z"/>
<path d="M1880 1840 c-9 -16 -8 -25 1 -36 27 -33 75 -2 52 35 -15 24 -40 25
-53 1z"/>
<path d="M1474 1658 c3 -13 6 -46 6 -73 0 -42 4 -52 23 -61 16 -7 28 -6 44 4
31 19 21 60 -27 112 -42 45 -55 50 -46 18z"/>
<path d="M1814 1635 c-4 -9 -2 -21 3 -26 14 -14 45 1 41 20 -4 22 -37 26 -44
6z"/>
<path d="M1610 1615 c-26 -32 13 -81 48 -59 23 15 26 38 7 58 -20 20 -39 20
-55 1z"/>
<path d="M1433 1484 c-8 -22 9 -48 35 -52 16 -2 23 3 28 22 3 14 3 30 -1 35
-10 17 -55 13 -62 -5z"/>
<path d="M1102 1914 c-44 -31 -17 -124 37 -124 10 0 30 9 45 21 69 55 -9 154
-82 103z m68 -39 c10 -12 10 -18 0 -30 -7 -8 -18 -15 -25 -15 -7 0 -18 7 -25
15 -10 12 -10 18 0 30 7 8 18 15 25 15 7 0 18 -7 25 -15z"/>
<path d="M1284 413 c-12 -2 -32 -15 -45 -29 l-24 -26 28 -24 c29 -25 48 -27
227 -29 69 0 152 12 193 29 28 11 3 12 -185 12 -119 -1 -219 2 -223 6 -23 23
19 28 223 28 123 0 211 4 202 9 -42 24 -304 39 -396 24z"/>
<path d="M1121 379 c-15 -17 -18 -26 -10 -36 15 -18 44 -17 59 3 11 13 10 18
-7 35 l-20 21 -22 -23z"/>
</g>
</svg>
